# xmcd
#
# Track frame offsets: 
#        150
#        19865
#        43853
#        69677
#        83350
#        111125
#        137489
#        164101
#        186639
#        206119
#        229894
#        249838
#
# Disc length: 3669 seconds
#
# Revision: 4
# Processed by: cddbd v1.5.2PL0 Copyright (c) Steve Scherf et al.
# Submitted via: ExactAudioCopyFreeDBPlugin 1.0
#
DISCID=aa0e530c
DTITLE=Various Artist - Festival International de Jazz de Montreal - 
DTITLE=Compilation 2008
DYEAR=2008
DGENRE=Jazz
TTITLE0=Melody Gardot - Worrisome Heart
TTITLE1=Abbey Lincoln - Throw It Away
TTITLE2=Hilario Duran - Paq Man
TTITLE3=Chantal Chamberland - Little Wonder
TTITLE4=Charlie Haden - Here's Looking At You
TTITLE5=Christian Scott - Litany Against Fear
TTITLE6=Saxophone Summit - Transitions
TTITLE7=Marcus Miller - Free
TTITLE8=Robbern Ford - How Deep In The Blues
TTITLE9=Dee Dee Bridgewater - Red Earth
TTITLE10=Jamers Carter - Hymn of The Orient
TTITLE11=McCoy Tyner - You Taught My Heart To Sing
EXTD=YEAR: 2008
EXTT0=
EXTT1=
EXTT2=
EXTT3=
EXTT4=
EXTT5=
EXTT6=
EXTT7=
EXTT8=
EXTT9=
EXTT10=
EXTT11=
PLAYORDER=
